<?xml version="1.0" standalone="no"?>
<!DOCTYPE svg PUBLIC "-//W3C//DTD SVG 20010904//EN"
 "http://www.w3.org/TR/2001/REC-SVG-20010904/DTD/svg10.dtd">
<svg version="1.0" xmlns="http://www.w3.org/2000/svg"
 width="414.000000pt" height="422.000000pt" viewBox="0 0 414.000000 422.000000"
 preserveAspectRatio="xMidYMid meet">
<metadata>
Created by potrace 1.16, written by Peter Selinger 2001-2019
</metadata>
<g transform="translate(0.000000,422.000000) scale(0.100000,-0.100000)"
fill="#000000" stroke="none">
<path d="M2030 3817 c-19 -6 -55 -32 -81 -57 l-47 -45 -8 -90 c-10 -126 -11
-235 0 -270 7 -23 6 -27 -4 -19 -9 9 -39 -1 -123 -41 l-112 -52 -22 -54 c-16
-41 -23 -50 -28 -36 -6 14 -21 17 -102 17 -52 0 -114 -5 -139 -11 -61 -16
-135 -87 -170 -163 -24 -52 -27 -73 -28 -165 -1 -80 2 -105 12 -104 18 4 15
-7 -18 -90 -17 -42 -30 -84 -30 -94 0 -27 -79 -100 -116 -107 -51 -11 -162
-139 -213 -246 -30 -66 -40 -80 -140 -204 -60 -75 -62 -75 -144 -25 -56 34
-60 34 -81 13 -23 -23 -20 -54 10 -85 24 -25 25 -29 11 -55 -8 -16 -45 -49
-83 -74 -78 -52 -94 -72 -78 -98 12 -18 39 -19 101 -6 39 8 41 1 8 -37 -43
-52 -43 -129 0 -129 7 0 34 24 59 53 l45 52 -2 -61 c-2 -68 11 -94 48 -94 18
0 26 9 36 38 17 54 19 55 43 34 11 -11 43 -29 70 -41 43 -18 52 -20 64 -8 12
12 9 20 -19 51 l-32 37 23 42 c34 62 98 144 144 184 23 19 84 60 136 90 113
67 169 124 214 218 19 39 51 86 71 105 20 19 50 60 65 90 18 34 51 75 88 108
34 28 62 52 64 52 2 0 4 -8 5 -18 3 -32 73 -238 96 -283 30 -56 46 -121 56
-234 8 -87 7 -91 -15 -110 -31 -27 -63 -118 -77 -215 -3 -19 -19 -61 -36 -94
-34 -64 -41 -138 -20 -222 10 -39 9 -47 -6 -64 -22 -24 -16 -85 20 -191 24
-71 25 -80 25 -361 l0 -288 45 0 45 0 2 73 c1 39 2 80 1 90 0 29 13 6 36 -63
27 -82 46 -110 75 -110 32 0 40 12 80 116 l35 89 3 -95 3 -95 48 -3 47 -3 0
137 c0 111 3 139 15 148 14 10 12 18 -13 70 l-29 60 24 20 c12 12 26 35 29 53
5 27 1 37 -24 63 -37 37 -42 83 -22 203 12 69 12 83 -4 132 -9 30 -21 55 -25
55 -5 0 -25 -7 -44 -15 -47 -20 -231 -32 -241 -16 -4 6 -22 11 -39 12 -18 0
-41 4 -52 9 -20 8 -20 9 1 9 11 1 24 4 27 8 4 3 51 7 105 9 110 2 192 23 228
59 13 13 31 26 41 28 10 3 28 8 41 12 19 5 22 3 22 -20 0 -14 8 -40 17 -58
l17 -32 9 58 c5 40 5 63 -3 72 -9 11 -7 12 8 8 13 -3 18 -11 15 -24 -6 -23 16
-119 27 -119 11 0 50 50 50 63 0 6 -7 19 -17 29 -32 36 41 11 105 -36 37 -28
193 -68 247 -64 22 1 41 -4 52 -15 16 -16 15 -17 -24 -17 -23 0 -43 -5 -45
-12 -3 -8 -36 -5 -121 11 -64 12 -123 24 -131 27 -9 3 -19 -9 -29 -35 -24 -58
-27 -83 -17 -149 10 -76 2 -152 -17 -152 -46 0 -110 -66 -120 -123 -7 -47 13
-112 46 -144 l28 -28 -48 -120 c-26 -66 -51 -133 -54 -148 -7 -26 -6 -27 34
-27 35 0 43 4 51 25 9 23 15 25 69 25 54 0 59 -2 65 -25 6 -22 11 -25 56 -25
28 0 50 4 50 9 0 5 -20 60 -44 123 -62 162 -61 155 -32 162 29 7 71 59 81 99
11 44 -4 114 -31 147 l-26 30 52 0 52 0 -6 -269 c-4 -147 -4 -276 0 -285 4 -9
18 -16 35 -16 l28 0 3 85 3 84 43 -57 c73 -98 85 -109 125 -115 l38 -6 -4 337
c-3 185 -10 369 -16 407 -6 39 -15 117 -21 175 -17 171 -20 201 -35 280 -15
79 -48 187 -71 232 -17 33 -18 111 -3 212 9 61 16 79 38 99 39 34 100 182 107
259 10 98 12 98 91 30 52 -45 72 -70 81 -100 7 -24 31 -58 58 -85 28 -28 53
-65 65 -98 36 -95 90 -151 220 -230 112 -67 181 -129 244 -218 l53 -76 -39
-33 c-42 -37 -49 -56 -21 -70 26 -14 73 3 119 42 22 20 43 32 47 29 4 -4 15
-27 26 -50 13 -29 25 -43 38 -43 35 0 45 25 38 90 -4 33 -5 60 -2 60 2 0 14
-20 26 -45 23 -48 59 -67 85 -45 23 19 18 52 -15 114 -33 64 -25 79 29 52 40
-21 68 -20 81 3 15 30 6 42 -76 95 -104 68 -115 96 -69 171 29 48 29 49 9 69
-23 24 -37 20 -85 -22 -24 -22 -56 -42 -71 -45 -25 -7 -33 0 -100 88 -78 103
-104 145 -112 185 -3 14 -30 57 -61 95 -30 39 -66 85 -80 103 -20 25 -33 32
-60 32 -45 0 -105 58 -130 126 -10 27 -28 74 -41 104 -18 45 -20 56 -8 58 10
3 14 22 14 77 0 41 4 85 9 98 12 30 -5 65 -81 169 -69 94 -98 107 -240 108
-84 0 -108 3 -108 13 0 8 -8 21 -17 29 -27 23 -188 108 -206 108 -12 0 -15 28
-19 178 -4 193 -8 209 -66 257 -60 50 -177 69 -262 42z m199 -1071 c36 -19 66
-85 57 -128 -3 -18 -18 -45 -33 -60 -49 -51 -155 -32 -189 34 -53 103 60 208
165 154z m-499 -1954 l0 -139 -29 5 -29 4 -1 134 -2 134 31 0 30 0 0 -138z
m518 58 c17 -34 9 -110 -14 -127 -27 -19 -52 -16 -65 10 -17 31 -17 110 0 131
20 24 63 17 79 -14z m297 -122 c54 -81 55 -85 55 -152 l0 -70 -32 45 c-18 24
-45 59 -60 77 -25 29 -28 40 -28 107 0 41 2 75 5 75 2 0 29 -37 60 -82z"/>
</g>
</svg>
