<?xml version="1.0" standalone="no"?>
<!DOCTYPE svg PUBLIC "-//W3C//DTD SVG 20010904//EN"
 "http://www.w3.org/TR/2001/REC-SVG-20010904/DTD/svg10.dtd">
<svg version="1.0" xmlns="http://www.w3.org/2000/svg"
 width="234.000000pt" height="300.000000pt" viewBox="0 0 234.000000 300.000000"
 preserveAspectRatio="xMidYMid meet">
<metadata>
Created by potrace 1.16, written by Peter Selinger 2001-2019
</metadata>
<g transform="translate(0.000000,300.000000) scale(0.100000,-0.100000)"
fill="#000000" stroke="none">
<path d="M953 2989 c-18 -5 -49 -25 -69 -44 l-37 -35 6 -123 c3 -67 13 -144
21 -172 23 -75 21 -93 -9 -87 -39 7 -111 -25 -167 -75 -34 -30 -56 -42 -69
-38 -10 3 -28 8 -39 11 -11 3 -43 -5 -73 -19 -116 -53 -177 -142 -177 -256 0
-37 3 -76 6 -88 7 -27 29 -30 39 -5 5 14 9 11 20 -16 13 -29 12 -36 -6 -67
-11 -18 -36 -71 -55 -117 -24 -58 -45 -93 -73 -118 -45 -41 -83 -94 -79 -111
2 -6 -2 -13 -9 -16 -6 -2 -13 6 -15 18 -6 44 -25 29 -66 -51 -38 -74 -42 -88
-42 -156 0 -58 -3 -74 -15 -74 -20 0 -36 -60 -42 -167 -6 -98 5 -166 35 -211
9 -14 15 -35 14 -47 -5 -38 91 -129 112 -107 4 3 23 5 42 3 20 -1 53 6 79 19
72 35 70 84 -4 95 -73 12 -80 15 -75 30 5 12 9 12 31 -2 24 -16 26 -16 38 1
13 17 13 135 0 167 -4 10 14 47 46 100 63 102 79 150 79 245 0 70 1 73 34 102
19 17 65 47 101 67 76 43 98 70 98 125 l0 39 28 -21 c21 -16 36 -19 62 -14 43
8 72 38 62 63 -8 17 -8 17 -12 0 -6 -25 -37 -17 -41 11 -5 34 -38 28 -51 -9
-9 -26 -14 -29 -25 -20 -8 6 -19 10 -26 9 -22 -5 -53 49 -58 101 -2 27 -1 76
3 108 6 48 13 63 45 95 35 36 41 38 98 38 50 0 63 -3 72 -19 5 -11 18 -22 28
-26 25 -7 42 -47 42 -93 -1 -65 -27 -216 -39 -220 -6 -2 -11 -10 -11 -17 0
-25 71 -67 169 -100 54 -18 107 -38 119 -44 26 -14 40 -59 52 -171 6 -47 20
-130 32 -185 18 -85 21 -134 22 -330 1 -194 -2 -239 -17 -288 -15 -49 -23 -60
-54 -75 l-36 -17 7 -95 c13 -190 19 -248 27 -262 6 -10 49 -13 191 -13 265 0
338 27 290 107 -15 26 -15 29 1 41 24 17 35 69 43 207 9 160 -9 324 -46 435
-16 49 -30 98 -30 109 1 35 -62 230 -81 251 -15 17 -16 34 -11 131 6 86 11
114 24 128 10 10 21 28 24 42 8 32 17 30 50 -8 39 -47 64 -106 64 -154 0 -47
28 -90 109 -169 28 -27 51 -54 51 -60 0 -14 54 -65 150 -142 85 -68 135 -144
125 -186 -5 -19 1 -33 23 -58 26 -29 32 -32 54 -22 14 6 31 7 39 2 11 -5 31 2
66 26 81 54 93 121 43 233 -22 46 -46 80 -80 109 -26 24 -74 84 -105 133 -44
69 -67 96 -97 111 -25 13 -49 37 -66 66 -15 26 -40 59 -55 74 -17 17 -34 50
-43 86 -8 32 -40 115 -70 184 l-55 126 36 36 c22 22 35 45 35 61 0 51 -42 140
-93 193 -51 54 -78 70 -99 57 -7 -4 -31 -7 -54 -5 -23 1 -45 -2 -49 -8 -11
-18 -20 -13 -101 54 -44 36 -100 76 -126 88 -60 28 -75 66 -52 130 19 52 13
146 -17 243 -23 74 -39 98 -81 120 -30 16 -135 17 -185 3z m357 -889 c6 -10
10 -35 10 -54 0 -63 -62 -83 -114 -37 -63 55 -13 146 67 118 15 -5 32 -17 37
-27z"/>
<path d="M692 1718 c-19 -23 -52 -137 -52 -178 0 -37 31 -131 51 -154 12 -14
69 114 69 155 0 20 -7 55 -15 78 -12 34 -12 46 -2 62 10 17 9 22 -7 35 -24 17
-31 18 -44 2z"/>
<path d="M736 533 c-34 -113 -86 -298 -86 -307 0 -11 230 -17 230 -6 0 3 -25
78 -57 168 -54 152 -74 186 -87 145z"/>
<path d="M260 100 l0 -100 25 0 c22 0 25 4 25 35 0 32 3 35 28 35 19 0 34 -10
52 -35 l25 -34 107 -1 c58 0 114 3 123 6 28 11 45 60 45 129 l0 65 -80 0 c-72
0 -84 -3 -105 -24 -24 -24 -44 -119 -31 -152 6 -14 4 -15 -9 -4 -32 27 -37 48
-15 70 14 14 20 33 20 65 l0 45 -105 0 -105 0 0 -100z"/>
<path d="M700 100 l0 -100 25 0 c24 0 25 2 25 65 0 36 4 65 9 65 12 0 80 -78
94 -107 7 -16 19 -23 39 -23 l28 0 0 100 0 100 -25 0 c-23 0 -25 -3 -25 -52
l0 -52 -42 41 c-49 46 -77 63 -107 63 -20 0 -21 -6 -21 -100z"/>
<path d="M930 100 l0 -100 25 0 c24 0 25 2 25 70 l0 71 68 -3 67 -3 3 -67 c3
-65 4 -68 27 -68 24 0 25 2 25 75 0 67 -3 79 -25 100 -22 23 -32 25 -120 25
l-95 0 0 -100z"/>
<path d="M1223 185 c-26 -18 -43 -72 -43 -137 0 -47 1 -48 31 -48 30 0 31 2
27 35 l-4 35 53 0 53 0 0 -35 c0 -31 3 -35 25 -35 l25 0 0 100 0 100 -73 0
c-49 0 -80 -5 -94 -15z"/>
<path d="M1410 100 l0 -100 25 0 c24 0 25 2 25 65 l0 65 25 -16 c14 -9 39 -38
57 -65 23 -36 38 -49 55 -49 23 0 23 2 23 100 0 93 -1 100 -20 100 -18 0 -20
-7 -20 -57 l0 -58 -30 37 c-36 43 -89 78 -119 78 -20 0 -21 -5 -21 -100z"/>
</g>
</svg>
