<?xml version="1.0" standalone="no"?>
<!DOCTYPE svg PUBLIC "-//W3C//DTD SVG 20010904//EN"
 "http://www.w3.org/TR/2001/REC-SVG-20010904/DTD/svg10.dtd">
<svg version="1.0" xmlns="http://www.w3.org/2000/svg"
 width="456.000000pt" height="561.000000pt" viewBox="0 0 456.000000 561.000000"
 preserveAspectRatio="xMidYMid meet">
<metadata>
Created by potrace 1.16, written by Peter Selinger 2001-2019
</metadata>
<g transform="translate(0.000000,561.000000) scale(0.100000,-0.100000)"
fill="#000000" stroke="none">
<path d="M2393 5405 c-128 -35 -184 -83 -249 -211 l-49 -96 3 -137 c2 -124 5
-140 28 -186 21 -40 28 -71 36 -163 5 -63 7 -117 4 -119 -2 -3 -13 0 -24 6
-12 6 -32 11 -45 11 -37 0 -229 -69 -253 -91 -11 -10 -23 -19 -26 -19 -4 0
-29 14 -57 31 -40 25 -65 33 -119 37 -63 4 -73 2 -142 -33 -90 -45 -191 -111
-251 -163 -24 -21 -51 -41 -60 -44 -23 -9 -122 -206 -153 -306 -14 -46 -29
-115 -32 -153 -8 -82 -3 -89 64 -89 35 0 52 7 88 36 40 33 74 40 74 15 0 -10
-63 -72 -112 -111 -26 -20 -28 -26 -28 -99 0 -45 -9 -112 -20 -157 -25 -101
-95 -239 -136 -270 -17 -13 -39 -40 -50 -59 -10 -19 -22 -35 -26 -35 -4 0 -19
20 -34 45 -29 50 -60 60 -69 23 -43 -194 -56 -257 -69 -333 -15 -86 -15 -94 4
-158 26 -94 48 -206 60 -311 7 -63 14 -92 26 -101 24 -17 11 -31 -40 -44 -25
-6 -47 -15 -50 -19 -3 -5 1 -101 9 -213 16 -233 32 -294 100 -393 23 -34 56
-87 74 -118 35 -62 25 -57 176 -92 77 -18 135 -21 135 -7 0 5 13 14 30 19 25
9 32 20 47 72 16 54 23 64 55 81 48 24 51 31 38 79 -14 51 -97 188 -123 202
-39 21 -82 80 -84 117 -1 20 -5 78 -9 129 -7 107 9 169 52 197 28 18 63 87 64
123 0 12 9 41 21 64 35 69 60 245 51 359 -4 53 -4 110 -1 126 4 15 10 41 13
57 4 17 34 54 78 95 86 80 148 156 148 181 0 22 59 120 71 120 5 0 9 -7 9 -16
0 -9 14 -57 30 -108 49 -145 167 -336 220 -355 35 -12 40 -39 39 -205 0 -170
-11 -268 -30 -274 -46 -15 -130 -151 -150 -243 -6 -29 -21 -69 -34 -89 -46
-74 -85 -217 -85 -313 0 -49 -8 -63 -34 -68 -16 -3 -29 -34 -67 -164 l-48
-160 0 -472 -1 -473 60 0 60 0 0 201 c0 110 4 198 8 195 4 -2 41 -93 82 -201
l75 -196 54 3 55 3 72 185 c40 102 77 192 83 200 7 10 10 -47 10 -188 l1 -203
78 3 77 3 3 257 2 257 30 3 30 3 -56 83 c-30 46 -54 85 -52 85 66 33 83 46 94
74 17 40 7 70 -35 106 -37 31 -72 36 -241 40 l-125 2 0 65 c1 36 7 106 14 155
13 83 13 94 -4 128 -9 20 -21 37 -25 37 -4 0 -15 -28 -24 -63 -14 -50 -15 -72
-6 -110 12 -56 -4 -183 -26 -208 -12 -13 -15 -56 -15 -205 l-1 -189 71 -3 70
-3 3 78 3 78 43 3 c24 2 50 -2 57 -8 21 -17 86 -132 80 -139 -4 -3 -28 -7 -53
-7 -26 -1 -54 -2 -64 -3 -11 -1 -33 -44 -73 -146 -31 -80 -60 -145 -65 -145
-8 0 -22 33 -82 197 -16 46 -35 86 -41 90 -7 5 -28 8 -47 8 l-35 0 -3 235 c-2
173 1 263 12 340 19 128 35 267 45 380 4 47 13 96 20 108 31 57 87 105 166
142 45 20 91 49 103 65 26 33 29 84 6 146 -19 54 -11 141 17 180 12 18 39 33
74 44 47 15 63 16 117 5 96 -18 148 -44 148 -73 0 -13 -3 -27 -7 -31 -7 -7
-12 -69 -13 -173 0 -38 -3 -42 -30 -48 -31 -7 -40 -20 -18 -27 16 -6 -28 -68
-48 -68 -8 0 -13 -4 -10 -9 3 -5 45 -6 94 -3 82 4 90 3 116 -20 24 -21 29 -34
36 -98 8 -80 56 -210 89 -243 17 -17 22 -18 54 -6 29 10 52 10 113 1 l78 -12
33 32 c18 17 33 38 33 44 0 23 23 64 36 64 17 0 27 -17 33 -58 5 -28 12 -37
41 -46 29 -10 40 -10 62 3 39 21 58 3 34 -33 -9 -15 -12 -26 -6 -26 5 0 10
-11 10 -25 0 -17 -8 -29 -25 -37 -13 -6 -27 -20 -31 -30 -3 -10 -22 -29 -42
-42 -35 -22 -41 -23 -104 -13 -59 9 -77 8 -140 -10 -115 -33 -157 -38 -164
-19 -3 9 -25 21 -49 27 -27 7 -56 25 -81 50 -21 21 -42 39 -46 39 -5 0 -6 -21
-2 -48 3 -26 7 -110 9 -187 3 -87 8 -140 15 -141 5 -1 26 -2 47 -3 l36 -1 -42
-31 c-65 -47 -91 -116 -74 -200 7 -37 91 -129 118 -129 8 0 15 -6 15 -14 0 -8
-45 -126 -100 -262 -55 -136 -100 -251 -100 -256 0 -4 29 -8 64 -8 l64 0 18
48 c10 26 23 50 28 54 6 4 55 8 108 8 105 0 103 1 128 -65 l16 -40 82 -3 c45
-2 82 -1 82 2 0 3 -42 112 -94 243 -52 131 -96 244 -98 251 -2 7 21 22 55 36
32 14 68 33 79 43 53 48 73 147 44 216 -7 18 -32 49 -55 69 -22 19 -39 37 -37
39 2 2 56 3 120 1 l116 -3 0 -450 0 -450 43 3 42 3 2 163 c1 90 3 166 6 168 2
2 59 -73 127 -167 l124 -170 56 3 55 3 0 510 0 510 -74 202 c-58 158 -79 203
-92 203 -10 0 -21 9 -24 20 -4 11 -17 32 -29 48 -18 21 -25 49 -36 135 -15
133 -32 198 -59 233 -19 25 -21 39 -21 188 0 167 18 346 39 384 13 24 31 29
31 9 0 -8 20 -54 45 -104 36 -74 44 -99 42 -139 -2 -41 6 -64 47 -144 62 -121
159 -264 189 -277 31 -15 55 -66 72 -159 8 -41 20 -84 25 -95 8 -13 7 -25 0
-39 -6 -11 -10 -54 -9 -95 2 -72 1 -76 -35 -119 -20 -24 -36 -48 -36 -53 0
-22 94 -154 123 -172 18 -11 41 -27 52 -35 18 -13 29 -14 86 -1 37 7 89 23
117 35 48 21 51 24 56 68 3 26 4 58 3 71 -1 18 5 29 23 38 33 16 38 53 39 278
1 203 -7 247 -64 369 -34 71 -55 90 -70 66 -3 -5 -11 -10 -17 -10 -8 0 -9 58
-5 202 l6 202 -40 160 c-22 89 -42 167 -44 174 -8 22 -71 -29 -102 -82 -15
-27 -33 -51 -40 -53 -20 -7 -64 83 -74 149 -27 191 -39 322 -30 331 6 6 38 13
73 16 l63 6 3 69 c5 119 -57 364 -116 457 -69 107 -182 219 -182 179 0 -19
-22 -10 -78 33 -75 58 -94 67 -135 67 -28 0 -42 8 -75 44 -22 24 -52 62 -67
84 -15 23 -46 52 -69 66 -22 13 -59 41 -82 63 l-41 38 -6 137 c-5 123 -3 140
15 177 22 45 22 92 -5 288 -18 138 -49 202 -121 249 -90 60 -251 86 -353 59z
m380 -1520 c93 -14 148 -33 162 -56 4 -5 18 -14 30 -19 27 -10 51 -42 60 -80
5 -21 -1 -33 -37 -66 -59 -55 -225 -184 -238 -184 -5 0 -50 25 -100 55 -50 30
-94 55 -97 55 -6 0 -108 75 -131 98 -8 6 -22 17 -33 22 -10 6 -19 16 -19 21 0
18 61 89 75 89 8 0 30 14 50 31 42 37 108 60 150 53 17 -3 74 -12 128 -19z
m604 -2730 l3 -110 -95 100 c-52 55 -94 103 -95 107 0 11 30 14 110 14 l75 -1
2 -110z m-1284 26 c19 -18 19 -21 4 -45 -14 -20 -27 -26 -80 -31 -99 -11 -111
-7 -115 39 -6 67 -2 69 90 63 63 -5 86 -11 101 -26z m581 15 c48 -20 66 -51
66 -113 0 -92 -36 -133 -117 -133 -47 0 -81 22 -99 66 -31 75 -5 160 56 181
46 16 55 16 94 -1z m620 -236 l86 -94 0 -138 c0 -76 -3 -138 -7 -138 -5 1 -54
65 -110 143 l-103 142 0 115 0 115 24 -25 c14 -14 63 -68 110 -120z"/>
</g>
</svg>
